<svg id="Layer_1" data-name="Layer 1" xmlns="http://www.w3.org/2000/svg" xmlns:xlink="http://www.w3.org/1999/xlink" viewBox="0 0 100 100"><defs><style>.cls-1{fill:url(#linear-gradient);}</style><linearGradient id="linear-gradient" x1="6.95" y1="18.55" x2="64.62" y2="53.8" gradientUnits="userSpaceOnUse"><stop offset="0" stop-color="#c8a760"/><stop offset="0" stop-color="#b88e31"/><stop offset="0.23" stop-color="#fede9f"/><stop offset="0.41" stop-color="#eac05b"/><stop offset="0.59" stop-color="#a77c1f"/><stop offset="0.77" stop-color="#c9971f"/><stop offset="1" stop-color="#966c10"/></linearGradient></defs><polygon points="41.56 13.15 41.56 13.91 94.24 13.91 94.24 86.09 22.07 86.09 22.07 76.38 21.3 76.38 21.3 86.85 95 86.85 95 13.15 41.56 13.15"/><path class="cls-1" d="M60.86,24.69c0,.33-.08.5-.25.5a8,8,0,0,0-5.51,2.26A16.05,16.05,0,0,0,51,34L34.81,76.29c-.06.22-.36.34-.92.34s-.86-.12-.92-.34L11.85,31.12a16,16,0,0,0-3-4.51,5.07,5.07,0,0,0-3.59-1.42c-.17,0-.25-.17-.25-.5s.08-.5.25-.5l2.17.08c1.23.12,2.62.17,4.18.17,3.89,0,7.4-.05,10.52-.17.89-.05,2-.08,3.42-.08.17,0,.25.17.25.5s-.08.5-.25.5q-5.26,0-5.26,3.68A7.59,7.59,0,0,0,21.11,32L36.65,65.27,48.84,33.62A10.35,10.35,0,0,0,49.59,30,4.38,4.38,0,0,0,48,26.44a7.27,7.27,0,0,0-4.63-1.25c-.17,0-.25-.17-.25-.5s.08-.5.25-.5l4,.08c2.11.12,4.06.17,5.84.17,1.06,0,2.37-.05,3.93-.17l3.42-.08C60.78,24.19,60.86,24.36,60.86,24.69Z"/><path class="cls-1" d="M78.89,73.37A2.52,2.52,0,0,0,80.61,75a14.68,14.68,0,0,0,4.13.41c.17,0,.25.17.25.5s-.08.51-.25.51q-2.67,0-4.26-.09l-6.18-.08-6,.08c-1.06.06-2.51.09-4.34.09-.17,0-.25-.17-.25-.51s.08-.5.25-.5A14.68,14.68,0,0,0,68.08,75a2.79,2.79,0,0,0,1.8-1.63,10.44,10.44,0,0,0,.5-3.72V31a10,10,0,0,0-.5-3.67,3,3,0,0,0-1.8-1.63A13.6,13.6,0,0,0,64,25.19c-.17,0-.25-.17-.25-.5s.08-.5.25-.5l4.34.08c2.45.12,4.45.17,6,.17,1.73,0,3.81-.05,6.26-.17l4.18-.08c.17,0,.25.17.25.5s-.08.5-.25.5a12.13,12.13,0,0,0-4,.5,2.9,2.9,0,0,0-1.75,1.71,11.11,11.11,0,0,0-.46,3.72V69.61A12.17,12.17,0,0,0,78.89,73.37Z"/><path d="M23.94,49.45a.27.27,0,0,1-.06.12c-.39.41-.82.83-1.28,1.25a9.54,9.54,0,0,1-1.46,1.09,2.73,2.73,0,0,1-1.43.46,1.15,1.15,0,0,1-1-.41,2.18,2.18,0,0,1-.44-1.07,7.75,7.75,0,0,1-.09-1.49c0-.55.05-1.12.09-1.7s.06-.93.08-1.36a7.1,7.1,0,0,0,0-1.15,2.06,2.06,0,0,0-.22-.81.6.6,0,0,0-.55-.3,1.75,1.75,0,0,0-1,.33,4.82,4.82,0,0,0-.95.88,9.73,9.73,0,0,0-.87,1.18c-.27.44-.53.87-.75,1.3a29.82,29.82,0,0,0-1.49,3.39,30.52,30.52,0,0,0-1,2.94.2.2,0,0,1-.17.15.23.23,0,0,1-.21-.09c-.09-.13-.08-.43,0-.91s.3-1.14.57-2,.55-1.85.82-2.88a15.19,15.19,0,0,0,.46-2.8,2.14,2.14,0,0,0-.53-1.79c-.43-.34-1.14-.29-2.14.14a8.48,8.48,0,0,0-2.26,1.44A7.63,7.63,0,0,0,6.66,47.1a3.37,3.37,0,0,0-.57,1.5c0,.57.29.85.89.85a.14.14,0,0,1,.11,0,.34.34,0,0,1,0,.11.26.26,0,0,1-.07.11.24.24,0,0,1-.13.05,1.15,1.15,0,0,1-.85-.29,1.05,1.05,0,0,1-.28-.81A4.91,4.91,0,0,1,7.12,46a9.06,9.06,0,0,1,3.22-2.37c1.11-.49,1.93-.52,2.45-.12a2.25,2.25,0,0,1,.6,1.85A12.24,12.24,0,0,1,13,48.24c-.27,1-.55,2.06-.85,3-.15.47-.28.92-.4,1.35a33.55,33.55,0,0,1,2-4.93q2.1-3.91,3.92-3.92a.79.79,0,0,1,.69.32,1.9,1.9,0,0,1,.3.87,7.88,7.88,0,0,1,.05,1.23c0,.47,0,1-.08,1.45s-.07,1.08-.09,1.6a7.89,7.89,0,0,0,.07,1.42,2.12,2.12,0,0,0,.37,1,.94.94,0,0,0,.83.38,2.23,2.23,0,0,0,1.08-.31A8.7,8.7,0,0,0,22,51c.36-.3.69-.6,1-.89s.52-.51.68-.69a.29.29,0,0,1,.12-.07.09.09,0,0,1,.1,0A.12.12,0,0,1,23.94,49.45Z"/><path d="M25.29,49.05a.65.65,0,0,1,0,.22,1.56,1.56,0,0,0-.11.72c0,.19.18.31.46.36a3.9,3.9,0,0,0,2.49-.93.22.22,0,0,1,.13,0,.18.18,0,0,1,.09.06.16.16,0,0,1,0,.12.18.18,0,0,1-.09.1,4.8,4.8,0,0,1-2.49,1,1.12,1.12,0,0,1-.27,0,.71.71,0,0,1-.56-.31.8.8,0,0,1-.09-.48,1.58,1.58,0,0,0-.12.15,2.73,2.73,0,0,1-.43.5.66.66,0,0,1-.44.19c-.24,0-.37-.16-.38-.47a1.45,1.45,0,0,1,.16-.66,1.21,1.21,0,0,1,.49-.51.64.64,0,0,1,.36-.09.75.75,0,0,1,.46.21,1,1,0,0,1,.08-.11.19.19,0,0,1,.11-.09.13.13,0,0,1,.12,0A.09.09,0,0,1,25.29,49.05Zm-.95.23a.34.34,0,0,0-.16,0,.84.84,0,0,0-.3.36,1.3,1.3,0,0,0-.12.47.28.28,0,0,0,0,.15c0,.06.05.08.11.08s.23-.09.38-.29a6,6,0,0,0,.44-.61l-.18-.14A.31.31,0,0,0,24.34,49.28Z"/><path d="M32.16,50.68a.8.8,0,0,1-.36-.09.66.66,0,0,1-.33-.33,1.6,1.6,0,0,1-.18-.71c0-.08,0-.17,0-.26a7.68,7.68,0,0,1-.72.62,5.1,5.1,0,0,1-.86.53,2.06,2.06,0,0,1-.91.22.71.71,0,0,1-.64-.29A.86.86,0,0,1,28,49.9a1.73,1.73,0,0,1,.06-.47,3,3,0,0,1,.09-.32.19.19,0,0,1,.09-.11.14.14,0,0,1,.12,0,.19.19,0,0,1,.09.05.49.49,0,0,1,0,.12,2,2,0,0,0-.14.54.73.73,0,0,0,.08.47.46.46,0,0,0,.43.21,1.76,1.76,0,0,0,.88-.25,6.07,6.07,0,0,0,.85-.58c.27-.22.5-.43.7-.61a7.56,7.56,0,0,1,.3-1.68,9.45,9.45,0,0,1,.34-1.08,10.64,10.64,0,0,1,.47-1.08,4,4,0,0,1,.56-.83.8.8,0,0,1,.59-.32.47.47,0,0,1,.27.08.52.52,0,0,1,.2.33,4,4,0,0,1-.56,2.13A9.22,9.22,0,0,1,31.59,49c0,.16,0,.31,0,.44a2,2,0,0,0,.08.43.92.92,0,0,0,.2.35.45.45,0,0,0,.36.15,2.09,2.09,0,0,0,.81-.16,6.21,6.21,0,0,0,.77-.4c.23-.15.44-.28.62-.41l0,0,.12-.08a.28.28,0,0,1,.12,0s.07,0,.09.06a.14.14,0,0,1,0,.11.24.24,0,0,1-.09.11l-.14.1a7.36,7.36,0,0,1-.68.44,5,5,0,0,1-.83.42A2.46,2.46,0,0,1,32.16,50.68ZM28.7,48.55a.34.34,0,0,1-.09.14.24.24,0,0,1-.15.06.14.14,0,0,1-.11-.06.17.17,0,0,1,0-.14.29.29,0,0,1,.09-.15.2.2,0,0,1,.13,0,.12.12,0,0,1,.12,0A.19.19,0,0,1,28.7,48.55Zm4.76-4.31c-.18,0-.43.28-.73.84a10.36,10.36,0,0,0-.84,2.16,8.27,8.27,0,0,0-.26,1.34,9,9,0,0,0,1.62-2.32,3.6,3.6,0,0,0,.45-1.79.34.34,0,0,0-.07-.16.24.24,0,0,0-.09-.07Z"/><path d="M34.47,52.36a.68.68,0,0,1-.31-.06.33.33,0,0,1-.18-.37c.07-.37.56-.84,1.48-1.39l-.34-.24a4.44,4.44,0,0,1-.38-.27.47.47,0,0,1-.22-.42.57.57,0,0,1,.12-.33,2.47,2.47,0,0,1,1-.72,2.34,2.34,0,0,1,1.14-.2.34.34,0,0,1,.29.47.14.14,0,0,1-.07.1.24.24,0,0,1-.13,0,.11.11,0,0,1-.09,0s0-.06,0-.1a.17.17,0,0,0,0-.1s-.05,0-.11-.07a2.16,2.16,0,0,0-.93.19,1.79,1.79,0,0,0-.83.55.23.23,0,0,0-.06.16c0,.06,0,.13.13.21l.42.3a4.27,4.27,0,0,1,.41.29,9.88,9.88,0,0,1,2.07-.75,8.61,8.61,0,0,1,2.05-.29.15.15,0,0,1,.1,0,.16.16,0,0,1,0,.12.14.14,0,0,1-.07.1.24.24,0,0,1-.13.05,8.46,8.46,0,0,0-1.87.25,11.08,11.08,0,0,0-1.92.67.78.78,0,0,1,.33.73,1,1,0,0,1-.52.6A2.93,2.93,0,0,1,34.47,52.36Zm1.22-1.63-.13.07a9.89,9.89,0,0,0-.83.57,1.76,1.76,0,0,0-.35.37c-.06.08-.09.14-.08.16a0,0,0,0,0,0,.05.11.11,0,0,0,.06.06.86.86,0,0,0,.53,0,3.84,3.84,0,0,0,.85-.37.62.62,0,0,0,.31-.33C36.07,51.11,36,50.93,35.69,50.73Z"/><path d="M45.91,49.05a.53.53,0,0,1,0,.22,1.67,1.67,0,0,0-.1.72q0,.28.45.36a3.91,3.91,0,0,0,2.5-.93.22.22,0,0,1,.13,0,.18.18,0,0,1,.09.06.16.16,0,0,1,0,.12.22.22,0,0,1-.09.1,4.83,4.83,0,0,1-2.5,1,1.24,1.24,0,0,1-.27,0,.69.69,0,0,1-.55-.31.89.89,0,0,1-.1-.48l-.11.15a2.73,2.73,0,0,1-.43.5.66.66,0,0,1-.44.19c-.24,0-.37-.16-.39-.47a1.47,1.47,0,0,1,.17-.66,1.19,1.19,0,0,1,.48-.51.7.7,0,0,1,.37-.09.75.75,0,0,1,.46.21.44.44,0,0,1,.08-.11.18.18,0,0,1,.1-.09.15.15,0,0,1,.13,0A.09.09,0,0,1,45.91,49.05Zm-.95.23a.32.32,0,0,0-.16,0,.84.84,0,0,0-.3.36,1.13,1.13,0,0,0-.12.47.4.4,0,0,0,0,.15.11.11,0,0,0,.12.08c.09,0,.23-.09.38-.29a6,6,0,0,0,.43-.61l-.17-.14A.31.31,0,0,0,45,49.28Z"/><path d="M48.56,50.68l-.07,0a.08.08,0,0,1-.05-.08.46.46,0,0,1,0-.17c0-.08.05-.2.09-.36s.1-.35.18-.61l.1-.33a.21.21,0,0,1,.08-.11A.25.25,0,0,1,49,49l.1,0a.16.16,0,0,1,0,.12l-.1.33c-.1.31-.17.57-.23.78l.05,0c.25-.18.54-.36.84-.56s.61-.35.9-.49a1.79,1.79,0,0,1,.75-.21.37.37,0,0,1,.27.1.76.76,0,0,1,.11.24c0,.1,0,.2,0,.3a2,2,0,0,0,.06.37.5.5,0,0,0,.16.28.55.55,0,0,0,.4.12,2.39,2.39,0,0,0,1.11-.27,8.92,8.92,0,0,0,1-.6l.16-.09c.05,0,.08,0,.13,0a.1.1,0,0,1,.08.06.13.13,0,0,1,0,.12.16.16,0,0,1-.08.1l-.16.1c-.24.16-.48.31-.72.44a4.4,4.4,0,0,1-.77.34,2.41,2.41,0,0,1-.85.14.8.8,0,0,1-.56-.16.75.75,0,0,1-.23-.37,3.41,3.41,0,0,1-.06-.43,1.78,1.78,0,0,0,0-.34.14.14,0,0,0-.13-.09,1.65,1.65,0,0,0-.66.2,8.08,8.08,0,0,0-.85.47l-.77.5c-.11.07-.21.13-.3.2Z"/><path d="M56.09,50.39a1.36,1.36,0,0,1-.16-.76c-.46.71-.85,1.07-1.15,1.07s-.37-.16-.39-.47a1.61,1.61,0,0,1,.17-.66,1.25,1.25,0,0,1,.48-.51.74.74,0,0,1,.38-.09.68.68,0,0,1,.45.22q.08-.12.15-.27c.14-.72.42-1.8.83-3.26.13-.48.28-1,.43-1.59a.15.15,0,0,1,.08-.11.25.25,0,0,1,.12,0,.18.18,0,0,1,.1,0,.19.19,0,0,1,0,.11c-.15.58-.3,1.11-.43,1.6-.38,1.34-.64,2.37-.79,3.09a2.11,2.11,0,0,0,0,1.41.66.66,0,0,0,.57.2,2.14,2.14,0,0,0,.81-.17,6.21,6.21,0,0,0,.77-.4l.62-.4h0l.13-.1.12,0c.05,0,.07,0,.09.06a.13.13,0,0,1,0,.11.28.28,0,0,1-.09.1l-.13.1h0l-.68.44a5,5,0,0,1-.83.42,2.46,2.46,0,0,1-.91.18A.88.88,0,0,1,56.09,50.39Zm-.81-1.11a.23.23,0,0,0-.14,0,.74.74,0,0,0-.31.36,1.13,1.13,0,0,0-.12.47.27.27,0,0,0,0,.15.1.1,0,0,0,.11.08.26.26,0,0,0,.16-.06,1.93,1.93,0,0,0,.27-.26l.4-.56a.54.54,0,0,0-.18-.15A.36.36,0,0,0,55.28,49.28Z"/><path d="M66.73,54.16c-1.57,0-2.49-.59-2.78-1.71a3.11,3.11,0,0,1,.22-1.8,4.09,4.09,0,0,1,1.2-1.58A3.16,3.16,0,0,1,69,48.83a.15.15,0,0,1,0,.09A.21.21,0,0,1,69,49a.18.18,0,0,1-.1.07.13.13,0,0,1-.12,0,2.84,2.84,0,0,0-3.29.18,3.62,3.62,0,0,0-1.07,1.42,2.58,2.58,0,0,0-.19,1.6c.32,1.21,1.46,1.7,3.4,1.48a5.29,5.29,0,0,0,2.13-.74A5,5,0,0,0,71.06,52a3.93,3.93,0,0,0,1-2.92,2.14,2.14,0,0,0-.6-1.25,3,3,0,0,0-1.09-.64,10.79,10.79,0,0,0-1.27-.34,4.73,4.73,0,0,1-1.46-.47,1.06,1.06,0,0,1-.56-1.11,2.06,2.06,0,0,1,.8-1.34,3,3,0,0,1,2.2-.71c.69.08,1.06.34,1.12.78a1.88,1.88,0,0,1-.89,1.45.28.28,0,0,1-.12.05.12.12,0,0,1-.1-.05s0-.06,0-.1a.29.29,0,0,1,.07-.12c.5-.4.75-.78.74-1.12s-.34-.52-.91-.58a2.67,2.67,0,0,0-1.93.61,1.67,1.67,0,0,0-.64,1.08.88.88,0,0,0,.48.91,5.05,5.05,0,0,0,1.37.42,9,9,0,0,1,1.3.35,3.19,3.19,0,0,1,1.16.7,2.41,2.41,0,0,1,.68,1.36,4.26,4.26,0,0,1-1.11,3.19,5.18,5.18,0,0,1-1.37,1.2,5.78,5.78,0,0,1-2.29.8A7.15,7.15,0,0,1,66.73,54.16Z"/><path d="M72.61,54.35a.18.18,0,0,1-.1,0,.16.16,0,0,1,0-.12l.23-1c.13-.63.29-1.31.48-2.07s.35-1.41.52-2a.31.31,0,0,1,.09-.11.17.17,0,0,1,.12,0A.13.13,0,0,1,74,49a.16.16,0,0,1,0,.12c-.27.88-.53,1.88-.77,3a11.19,11.19,0,0,1,1.35-2.21,3.63,3.63,0,0,1,1.87-1.34c.54-.11.85,0,.93.33a.67.67,0,0,1-.18.51,2.35,2.35,0,0,1-.81.6,8,8,0,0,1-1.45.54,5.16,5.16,0,0,0,1.32.14,6.24,6.24,0,0,0,1.84-.29,7.56,7.56,0,0,0,2.15-1.07.22.22,0,0,1,.13,0,.19.19,0,0,1,.09,0,.16.16,0,0,1,0,.12.18.18,0,0,1-.09.1,7.66,7.66,0,0,1-2.63,1.24,6.41,6.41,0,0,1-2.13.19,4.67,4.67,0,0,1-1.3-.28,14.51,14.51,0,0,0-1.57,3.46.19.19,0,0,1-.07.12A.28.28,0,0,1,72.61,54.35Zm4.15-5.5a1,1,0,0,0-.27,0,2.54,2.54,0,0,0-1,.53,5.19,5.19,0,0,0-.87.93,7.93,7.93,0,0,0,.82-.22,7.74,7.74,0,0,0,.88-.37c.55-.3.8-.55.77-.73S77,48.85,76.76,48.85Z"/><path d="M81.82,49.05a.65.65,0,0,1,0,.22,1.56,1.56,0,0,0-.11.72c0,.19.18.31.46.36a3.9,3.9,0,0,0,2.49-.93.24.24,0,0,1,.13,0,.15.15,0,0,1,.09.06.16.16,0,0,1,0,.12.18.18,0,0,1-.09.1,4.8,4.8,0,0,1-2.49,1,1.12,1.12,0,0,1-.27,0,.71.71,0,0,1-.56-.31.8.8,0,0,1-.09-.48,1.58,1.58,0,0,0-.12.15,2.73,2.73,0,0,1-.43.5.66.66,0,0,1-.44.19c-.23,0-.37-.16-.38-.47a1.45,1.45,0,0,1,.16-.66,1.21,1.21,0,0,1,.49-.51A.68.68,0,0,1,81,49a.73.73,0,0,1,.45.21,1,1,0,0,1,.08-.11.19.19,0,0,1,.11-.09.13.13,0,0,1,.12,0A.09.09,0,0,1,81.82,49.05Zm-.95.23a.34.34,0,0,0-.16,0,.76.76,0,0,0-.29.36,1.15,1.15,0,0,0-.13.47.28.28,0,0,0,0,.15.1.1,0,0,0,.11.08c.1,0,.23-.09.38-.29a6,6,0,0,0,.44-.61,1.24,1.24,0,0,0-.18-.14A.31.31,0,0,0,80.87,49.28Z"/></svg>